<?xml version="1.0" encoding="utf-8"?>
<!-- Generator: Adobe Illustrator 16.0.4, SVG Export Plug-In . SVG Version: 6.00 Build 0)  -->
<!DOCTYPE svg PUBLIC "-//W3C//DTD SVG 1.1//EN" "http://www.w3.org/Graphics/SVG/1.1/DTD/svg11.dtd">
<svg version="1.1" xmlns="http://www.w3.org/2000/svg" xmlns:xlink="http://www.w3.org/1999/xlink" x="0px" y="0px" width="500px"
	 height="500px" viewBox="0 0 500 500" enable-background="new 0 0 500 500" xml:space="preserve">

	<g id="Layer_1">
		<g>
			<path fill="#1A1A1A" d="M250,417c-92.084,0-167-74.916-167-167S157.916,83,250,83s167,74.916,167,167S342.084,417,250,417z
				 M250,91c-87.673,0-159,71.327-159,159s71.327,159,159,159s159-71.327,159-159S337.673,91,250,91z"/>
			<path fill="#4D4D4D" d="M296.067,238.099c-11.485-2.164-27.892-3.787-45.567-3.787s-34.082,1.623-45.567,3.787
				c-20.08,3.782-47.482,41.985-47.482,73.573c0,18.716,6.729,36.002,18.097,49.998C197.54,374.586,223.152,382,250.5,382
				c27.349,0,52.96-7.414,74.953-20.33c11.367-13.996,18.096-31.282,18.096-49.998C343.549,280.084,316.147,241.881,296.067,238.099z
				 M250.5,228.361c30.475,0,55.181-24.705,55.181-55.181c0-30.475-24.706-55.18-55.181-55.18s-55.18,24.705-55.18,55.18
				C195.32,203.656,220.025,228.361,250.5,228.361z"/>
		</g>
	</g>
</svg>
